<svg width="31" height="31" viewBox="0 0 31 31" fill="none" xmlns="http://www.w3.org/2000/svg">
<path d="M3.73849 30.9998L3.16201 30.8428C2.23394 30.5811 1.41964 30.0184 0.847652 29.2434C0.275661 28.4684 -0.0214387 27.5254 0.00324988 26.5631C0.00324988 24.0524 0.00324988 21.5416 0.00324988 19.0356C0.00324988 14.1947 0.00324988 9.35547 0.00324988 4.51779C-0.0334685 3.57314 0.24179 2.64262 0.786687 1.86936C1.33158 1.0961 2.11594 0.52295 3.01908 0.238072C3.41114 0.107498 3.82075 0.0369543 4.23398 0.0288408C7.03065 0.0288408 9.82732 0.0288408 12.624 0.0288408C12.973 0.0265328 13.3114 0.14847 13.5785 0.372764C13.8455 0.597057 14.0238 0.909017 14.0811 1.25264C14.1385 1.59627 14.0713 1.94906 13.8916 2.24768C13.7118 2.5463 13.4313 2.77119 13.1004 2.88199C12.8862 2.9398 12.6648 2.96702 12.4429 2.96283C9.79873 2.96283 7.15453 2.99136 4.51032 2.96283C4.29823 2.95258 4.08632 2.98681 3.88829 3.06331C3.69026 3.1398 3.51049 3.25687 3.36056 3.40696C3.21063 3.55704 3.09388 3.73682 3.01783 3.9347C2.94178 4.13259 2.90812 4.34418 2.91902 4.55584C2.94126 11.8631 2.94126 19.1703 2.91902 26.4775C2.90585 26.6904 2.93807 26.9036 3.01356 27.1031C3.08904 27.3025 3.20608 27.4838 3.35693 27.6348C3.50777 27.7858 3.68899 27.9031 3.88864 27.9791C4.08828 28.055 4.3018 28.0878 4.51508 28.0753C11.7886 28.0753 19.067 28.0753 26.35 28.0753C26.5585 28.0869 26.7671 28.0546 26.9623 27.9804C27.1574 27.9062 27.3347 27.7918 27.4826 27.6447C27.6305 27.4975 27.7456 27.3209 27.8206 27.1264C27.8955 26.9318 27.9285 26.7237 27.9175 26.5156C27.8841 23.8289 27.9175 21.1374 27.9175 18.4317C27.8944 18.0862 27.992 17.7435 28.1935 17.4618C28.395 17.18 28.688 16.9766 29.0228 16.8862C29.2458 16.8269 29.4796 16.8209 29.7053 16.8686C29.931 16.9164 30.1422 17.0166 30.3218 17.1612C30.5014 17.3057 30.6444 17.4905 30.739 17.7005C30.8337 17.9105 30.8774 18.1398 30.8666 18.3698C30.8666 21.1406 30.8666 23.9129 30.8666 26.6868C30.8623 26.9781 30.8272 27.2682 30.7618 27.5522C30.5882 28.4012 30.1605 29.1777 29.5352 29.7789C28.91 30.38 28.1166 30.7776 27.26 30.9189C27.2122 30.9289 27.1668 30.9483 27.1266 30.976L3.73849 30.9998Z" fill="#E84E1B"/>
<path d="M31.0002 6.26351C31.0002 6.42995 30.9621 6.60114 30.9574 6.76757C30.9224 8.20999 30.8938 9.65083 30.8716 11.0901C30.8799 11.2895 30.848 11.4885 30.7776 11.6754C30.7073 11.8622 30.6001 12.033 30.4623 12.1776C30.3245 12.3222 30.159 12.4377 29.9756 12.5172C29.7922 12.5967 29.5946 12.6386 29.3947 12.6403C29.1917 12.6416 28.9908 12.6008 28.8045 12.5204C28.6182 12.44 28.4508 12.3218 28.3127 12.1733C28.1747 12.0249 28.0692 11.8493 28.0028 11.6579C27.9365 11.4665 27.9107 11.2634 27.9272 11.0616C28.0416 9.08813 28.1893 7.12421 28.3227 5.15554L28.3703 4.48981C28.2703 4.58016 28.2036 4.63722 28.1416 4.69904C23.3582 9.53671 18.578 14.3744 13.801 19.2121C13.6467 19.3991 13.4512 19.5479 13.2296 19.6469C13.0081 19.7459 12.7666 19.7924 12.5241 19.7827C12.2419 19.7721 11.9688 19.6799 11.7381 19.5173C11.5074 19.3547 11.3289 19.1287 11.2245 18.8668C11.12 18.6049 11.094 18.3183 11.1497 18.0419C11.2053 17.7656 11.3402 17.5113 11.5379 17.31C11.7523 17.0722 11.9905 16.8344 12.2145 16.6204C16.6358 12.1568 21.0539 7.69009 25.4688 3.22015L25.7071 2.96337H19.947C19.634 2.97833 19.3242 2.8945 19.0616 2.72378C18.7991 2.55306 18.5971 2.30413 18.4843 2.01232C18.3946 1.78688 18.3622 1.54278 18.39 1.3018C18.4178 1.06081 18.5049 0.830448 18.6436 0.63126C18.7823 0.432071 18.9683 0.270256 19.1849 0.160256C19.4015 0.0502552 19.6421 -0.00450863 19.885 0.000851522C21.1095 0.000851522 22.3291 0.000851522 23.5488 0.000851522C25.0877 0.000851522 26.6218 0.000851522 28.1559 0.000851522C28.7827 -0.0121917 29.4035 0.124775 29.9664 0.400292C30.1846 0.496807 30.3727 0.650176 30.511 0.844294C30.6493 1.03841 30.7328 1.26612 30.7525 1.50351C30.824 2.36421 30.8859 3.22491 30.9526 4.08561C30.9526 4.27582 30.9812 4.46603 31.0002 4.65624V6.26351Z" fill="#E84E1B"/>
</svg>
