<svg width="42" height="40" viewBox="0 0 42 40" fill="none" xmlns="http://www.w3.org/2000/svg">
<path d="M21.0001 1C24.9581 1.00001 28.8271 2.1157 32.1172 4.20579C35.4074 6.29588 37.9708 9.2664 39.4829 12.7413C40.995 16.2161 41.3878 20.0391 40.6116 23.7262C39.8354 27.4132 37.9251 30.7986 35.1225 33.4537C32.3198 36.1088 28.751 37.9142 24.8677 38.6413C20.9844 39.3685 16.9614 38.9847 13.3078 37.5385C9.6543 36.0923 6.53458 33.6489 4.34365 30.5174C2.15272 27.3859 0.989083 23.7073 1.00008 19.9472C1.02743 14.921 3.14511 10.1088 6.89151 6.5596C10.6379 3.01041 15.7092 1.012 21.0001 1ZM20.926 25.7281H21.4779C23.5273 25.7351 25.5566 25.3435 27.4408 24.5776C31.6223 22.7761 31.989 18.4272 30.6519 16.0522C30.4038 15.6124 29.9778 15.2043 29.9112 14.7468C29.8445 14.2894 30.1667 13.7757 30.2816 13.2761C30.463 12.3965 30.6519 11.5169 30.3297 10.6196C30.3164 10.5527 30.2879 10.4893 30.2461 10.434C30.2044 10.3786 30.1504 10.3325 30.088 10.299C30.0255 10.2655 29.9562 10.2454 29.8847 10.24C29.8132 10.2346 29.7414 10.2441 29.6741 10.2678C28.4126 10.4539 27.2337 10.9803 26.2778 11.7843C26.2089 11.8582 26.115 11.9071 26.0123 11.9225C25.9096 11.9379 25.8045 11.9189 25.7149 11.8687C24.2302 11.2571 22.6303 10.938 21.012 10.9307C19.3938 10.9235 17.7908 11.2282 16.3001 11.8265C16.1821 11.8907 16.0448 11.9152 15.9104 11.896C15.776 11.8769 15.6523 11.8152 15.5593 11.7209C14.712 11.0023 13.6705 10.5222 12.5519 10.3346C11.7371 10.1763 11.6223 10.2643 11.5038 11.0559C11.5058 11.0688 11.5058 11.0818 11.5038 11.0946C11.4162 12.1922 11.561 13.2952 11.9297 14.3387C11.9892 14.5043 12.0045 14.6814 11.9741 14.8539C11.9437 15.0265 11.8686 15.1892 11.7556 15.3274C11.1557 16.1035 10.7566 17.003 10.5906 17.9529C10.4245 18.9028 10.4963 19.8765 10.8001 20.7952C11.4186 22.843 12.9667 24.0568 14.9704 24.8239C16.875 25.4899 18.8978 25.7971 20.926 25.7281ZM32.9482 20.0668H39.2445C39.0741 13.9904 36.5297 8.99055 31.0964 5.64093C24.6593 1.65445 17.9075 1.54889 11.3482 5.35593C5.62971 8.67741 2.94082 13.7793 2.73711 20.0668H8.78527C8.79905 20.0318 8.80776 19.9951 8.81119 19.9578C8.56359 18.1378 9.00464 16.2936 10.0556 14.7539C10.1246 14.5995 10.1415 14.4286 10.1038 14.2648C9.97045 13.3781 9.75563 12.5056 9.69267 11.6119C9.61859 10.5387 9.75563 9.47611 10.6519 8.68093C10.836 8.52761 11.0702 8.43938 11.3149 8.43113C12.9645 8.41458 14.5723 8.92372 15.8816 9.87723C15.9691 9.94957 16.0765 9.99688 16.1912 10.0137C16.3059 10.0305 16.4233 10.0161 16.5297 9.97222C19.3975 8.99754 22.5323 8.99754 25.4001 9.97222C25.4993 10.0146 25.6091 10.0292 25.7168 10.0143C25.8244 9.99931 25.9253 9.95541 26.0075 9.88778C27.3269 8.92295 28.95 8.40857 30.6149 8.42761C30.8461 8.44037 31.0663 8.52577 31.2408 8.67038C31.9816 9.33187 32.2149 10.2115 32.2556 11.1333C32.2729 12.1936 32.1231 13.2502 31.8112 14.2683C31.7635 14.4296 31.7779 14.6018 31.8519 14.7539C32.9195 16.3264 33.3119 18.2278 32.9482 20.0668ZM27.089 36.2907C30.4244 35.1689 33.3409 33.1432 35.4778 30.4641C37.2351 28.3023 38.411 25.7661 38.9038 23.0752L38.8038 23.0365C36.677 22.682 34.5223 22.5007 32.363 22.4946C32.3057 22.5034 32.2511 22.524 32.2031 22.555C32.1551 22.586 32.1149 22.6267 32.0853 22.6741C30.9223 24.6972 29.0742 25.89 26.8297 26.5972C26.2593 26.7767 25.6741 26.9174 25.1816 27.0511C25.6223 27.8146 26.1149 28.5641 26.4964 29.3593C26.9552 30.4012 27.1591 31.5285 27.0927 32.6561C27.0741 33.8419 27.089 35.0311 27.089 36.2907ZM25.3186 36.7868C25.3186 35.1648 25.3445 33.5815 25.3186 31.9982C25.2981 30.6591 24.7918 29.3679 23.8853 28.3424C23.6603 28.0558 23.3637 27.8269 23.0223 27.6764C22.6809 27.5259 22.3054 27.4585 21.9297 27.4804C21.3519 27.512 20.7704 27.505 20.1927 27.4804C19.8677 27.4666 19.5433 27.5188 19.2413 27.6334C18.9392 27.7481 18.6663 27.9226 18.4408 28.1454C17.5344 28.9695 16.9482 30.0608 16.7779 31.2417C16.6851 32.1348 16.6517 33.0327 16.6779 33.9298C16.6779 34.8798 16.6779 35.8298 16.6779 36.7798C19.515 37.4472 22.4803 37.4496 25.3186 36.7868ZM14.8927 32.3676C14.1223 32.3676 13.389 32.3852 12.6704 32.3676C10.7779 32.3148 9.36675 31.5689 8.64823 29.8307C8.50749 29.4789 8.35934 29.1622 8.2186 28.828C7.93509 28.0089 7.40288 27.2879 6.68897 26.7555C6.5704 26.6691 6.47366 26.5585 6.40581 26.432C6.33797 26.3054 6.30074 26.1661 6.29683 26.0241C6.29293 25.8822 6.32245 25.7412 6.38324 25.6114C6.44404 25.4817 6.53457 25.3665 6.64822 25.2743C6.81479 25.1173 7.02211 25.005 7.24913 24.9488C7.47615 24.8925 7.71479 24.8944 7.94082 24.9541C9.0186 25.2004 9.79268 25.8619 10.5334 26.6148C10.8556 26.9667 11.1556 27.3185 11.489 27.6352C11.6509 27.8052 11.8471 27.9427 12.0659 28.0394C12.2848 28.1361 12.5218 28.1901 12.763 28.1982C13.5371 28.1982 14.3149 28.1982 15.0927 28.1982C15.9297 28.17 16.6371 27.9026 16.9779 27.1215C16.3075 26.9456 15.6371 26.7978 14.9816 26.5902C12.7593 25.8865 10.9075 24.7007 9.75193 22.6987C9.70113 22.6364 9.63603 22.5859 9.56157 22.5512C9.48711 22.5164 9.40526 22.4983 9.3223 22.4982C7.74452 22.5932 6.17045 22.6987 4.59638 22.8254C4.10008 22.8641 3.6112 22.9767 3.09268 23.0611C3.76799 26.6431 5.62089 29.9295 8.38526 32.4485C10.2388 34.1558 12.4585 35.4628 14.8927 36.2802V32.3676ZM39.1741 21.0274C39.0748 20.9978 38.9733 20.9755 38.8704 20.9606C37.0186 20.9395 35.1667 20.9043 33.3408 20.9078C32.7186 20.9078 32.689 20.9817 32.6371 21.5798L39.0741 22.1146L39.1741 21.0274ZM2.92971 22.1217L9.19637 21.5763C9.06674 20.8726 9.06674 20.8726 8.35193 20.8726C7.04082 20.8726 5.72971 20.8726 4.4186 20.8726C3.90378 20.8726 3.38897 20.9394 2.82601 20.9817L2.92971 22.1217ZM10.0779 28.6591C10.1445 28.835 10.2186 29.0109 10.2779 29.1833C10.3885 29.5906 10.634 29.9534 10.978 30.2182C11.3221 30.483 11.7466 30.6358 12.189 30.6541C12.889 30.7068 13.6001 30.6857 14.3038 30.6892C15.1186 30.6892 15.1186 30.6893 15.2853 29.9328C15.2853 29.9328 15.2853 29.9081 15.2853 29.88C15.2075 29.88 15.126 29.88 15.0408 29.88C14.3482 29.88 13.6593 29.88 12.9667 29.88C11.7964 29.8835 10.9075 29.3417 10.0779 28.6591Z" fill="#E84E1B" stroke="#E84E1B" stroke-width="0.7"/>
</svg>
